<svg xmlns="http://www.w3.org/2000/svg" xmlns:xlink="http://www.w3.org/1999/xlink" width="1837" height="749" viewBox="0 0 1837 749">
  <defs>
    <filter id="Rectangle_1605" x="0" y="0" width="1837" height="749" filterUnits="userSpaceOnUse">
      <feOffset dy="3" input="SourceAlpha"/>
      <feGaussianBlur stdDeviation="30" result="blur"/>
      <feFlood flood-opacity="0.322"/>
      <feComposite operator="in" in2="blur"/>
      <feComposite in="SourceGraphic"/>
    </filter>
  </defs>
  <g id="Group_61" data-name="Group 61" transform="translate(-2537 -151)">
    <g transform="matrix(1, 0, 0, 1, 2537, 151)" filter="url(#Rectangle_1605)">
      <g id="Rectangle_1605-2" data-name="Rectangle 1605" transform="translate(90 87)" fill="#fff" stroke="#707070" stroke-width="4">
        <rect width="1657" height="569" rx="88" stroke="none"/>
        <rect x="2" y="2" width="1653" height="565" rx="86" fill="none"/>
      </g>
    </g>
    <path id="Icon_awesome-apple" data-name="Icon awesome-apple" d="M196.108,149.54c-.124-22.837,10.205-40.074,31.113-52.768-11.7-16.739-29.371-25.948-52.706-27.753-22.09-1.742-46.234,12.881-55.07,12.881-9.334,0-30.74-12.259-47.541-12.259C37.182,70.2.281,97.332.281,152.527q0,24.455,8.961,50.528c7.965,22.837,36.714,78.841,66.707,77.908,15.681-.373,26.757-11.139,47.168-11.139,19.788,0,30.055,11.139,47.541,11.139,30.242-.436,56.253-51.337,63.844-74.236-40.572-19.1-38.394-56-38.394-57.186ZM160.888,47.364C177.876,27.2,176.32,8.846,175.822,2.25c-15,.871-32.358,10.205-42.252,21.717-10.89,12.321-17.3,27.566-15.93,44.741C133.882,69.952,148.691,61.614,160.888,47.364Z" transform="translate(2831.265 380.75)"/>
    <text id="GET_IT_ON" data-name="GET IT ON" transform="translate(3256 488)" fill="#707070" font-size="92" font-family="SegoeUI-Bold, Segoe UI" font-weight="700"><tspan x="0" y="0">GET IT ON</tspan></text>
    <text id="Apple_Store" data-name="Apple Store" transform="translate(3252 645)" font-size="131" font-family="SegoeUI-Bold, Segoe UI" font-weight="700"><tspan x="0" y="0">Apple Store</tspan></text>
  </g>
</svg>
