<svg id="undraw_calling_kpbp" xmlns="http://www.w3.org/2000/svg" xmlns:xlink="http://www.w3.org/1999/xlink" width="1145.7" height="770.58" viewBox="0 0 1145.7 770.58">
  <defs>
    <linearGradient id="linear-gradient" x1="0.081" y1="1" x2="0.081" gradientUnits="objectBoundingBox">
      <stop offset="0" stop-color="gray" stop-opacity="0.251"/>
      <stop offset="0.54" stop-color="gray" stop-opacity="0.122"/>
      <stop offset="1" stop-color="gray" stop-opacity="0.102"/>
    </linearGradient>
  </defs>
  <ellipse id="Ellipse_531" data-name="Ellipse 531" cx="142" cy="10" rx="142" ry="10" transform="translate(629.85 750.58)" fill="#70b94b" opacity="0.1"/>
  <path id="Path_2122" data-name="Path 2122" d="M1172.85,518.81A268.06,268.06,0,0,1,862.36,783.33H437.65a364.081,364.081,0,0,1-49.5,3.38q-17.83,0-35.23-1.7C167.982,767.054,26.96,611.517,27.15,425.71c0-199.38,161.63-361,361-361,160.57,0,296.63,104.84,343.52,249.8A266.84,266.84,0,0,1,905,250.91C1052.91,250.91,1172.85,370.85,1172.85,518.81Z" transform="translate(-27.15 -64.71)" fill="#70b94b" opacity="0.1"/>
  <path id="Path_2123" data-name="Path 2123" d="M1069.94,729.88a268.311,268.311,0,0,1-207.58,53.45H437.65a364.081,364.081,0,0,1-49.5,3.38q-17.83,0-35.23-1.7a361.17,361.17,0,0,1-309-250.21C78.5,460.91,167.34,408.33,271.5,408.33c101.5,0,188.5,49.94,224.81,120.87a301.82,301.82,0,0,1,54.19-4.87C655.7,524.33,745.27,578,779.09,653a295.629,295.629,0,0,1,86.41-12.71C951.3,640.33,1026.71,676,1069.94,729.88Z" transform="translate(-27.15 -64.71)" fill="#70b94b" opacity="0.1"/>
  <path id="Path_2124" data-name="Path 2124" d="M378.85,737.94c0,25.62-9.83,39.53-25.93,47.07a359.07,359.07,0,0,1-169-61.58,97.08,97.08,0,0,1,7.33-25.25l45.79,14.24-40.78-24a98.128,98.128,0,0,1,20.85-24.94l76.93,23.92L233.77,652a98,98,0,0,1,139.29,52.71l.21.6c.16.45.32.9.47,1.36q.81,2.39,1.49,4.83c.17.58.33,1.16.47,1.75s.29,1.12.42,1.68.24,1,.34,1.46c.07.3.14.6.2.9.11.48.21,1,.3,1.45.14.7.28,1.41.4,2.11s.25,1.46.36,2.19.24,1.62.34,2.44.18,1.46.25,2.19c0,.23.05.45.07.68.07.64.12,1.28.17,1.92a2.115,2.115,0,0,1,0,.25q.09,1.2.15,2.4t.09,2.34a1.69,1.69,0,0,1,0,.23C378.84,736.29,378.85,737.11,378.85,737.94Z" transform="translate(-27.15 -64.71)" fill="#70b94b"/>
  <path id="Path_2125" data-name="Path 2125" d="M378.85,737.94c0,25.62-9.83,39.53-25.93,47.07a358.429,358.429,0,0,1-113.44-30.24l1.64-1.09c7.41-4.91,15.07-9.93,23.79-11.6,7.67-1.47,15.58-.23,23.37-.67A54.67,54.67,0,0,0,324.09,725c5.57-5.76,10-12.83,16.65-17.23,7.22-4.74,16.38-5.76,24.94-4.58a66.113,66.113,0,0,1,7.38,1.51l.21.6c.16.45.32.9.47,1.36q.81,2.39,1.49,4.83c.17.58.33,1.16.47,1.75s.29,1.12.42,1.68.24,1,.34,1.46c.07.3.14.6.2.9.11.48.21,1,.3,1.45.14.7.28,1.41.4,2.11s.25,1.46.36,2.19.24,1.62.34,2.44.18,1.46.25,2.19c0,.23.05.45.07.68.07.64.12,1.28.17,1.92a2.115,2.115,0,0,1,0,.25q.09,1.2.15,2.4t.09,2.34a1.69,1.69,0,0,1,0,.23C378.84,736.29,378.85,737.11,378.85,737.94Z" transform="translate(-27.15 -64.71)" opacity="0.1"/>
  <path id="Path_2126" data-name="Path 2126" d="M962.65,754.57a37,37,0,0,1-.8,7.76c-.1.48-.21.95-.32,1.41-2.84,11.39-10.85,19.72-20.41,20.25h-1c-10.11,0-18.66-8.72-21.48-20.73-.08-.32-.15-.64-.22-1a37.006,37.006,0,0,1-.8-7.76c0-16.27,10.07-29.45,22.5-29.45S962.65,738.3,962.65,754.57Z" transform="translate(-27.15 -64.71)" fill="#3f3d56"/>
  <path id="Path_2127" data-name="Path 2127" d="M962.65,754.57a37,37,0,0,1-.8,7.76c-.1.48-.21.95-.32,1.41h-1a45.761,45.761,0,0,1-7.36-1,44.916,44.916,0,0,1-6.56,1.5,45.869,45.869,0,0,1-5.14.48h-1.74a46.427,46.427,0,0,1-6.164-.411,45.17,45.17,0,0,1-9.666-2.4,45.562,45.562,0,0,1-5.22,1.4c-.08-.32-.15-.64-.22-1a37.005,37.005,0,0,1-.8-7.76c0-16.27,10.07-29.45,22.5-29.45S962.65,738.3,962.65,754.57Z" transform="translate(-27.15 -64.71)" opacity="0.1"/>
  <path id="Path_2128" data-name="Path 2128" d="M1010.65,699.71a45.539,45.539,0,0,0-4.9-20.61l-26.46,8.23,23.23-13.65a45.71,45.71,0,0,0-34.36-19.59,45.662,45.662,0,0,0-3.57-4.72l-38,11.83,31.17-18.33a45.73,45.73,0,0,0-72,24.39l32.55,37.47L883,679.19a45.74,45.74,0,0,0,40.93,80.7,45.92,45.92,0,0,0,29.28.81,45.78,45.78,0,0,0,55.57-44.7c0-1,0-2-.1-3a45.629,45.629,0,0,0,1.97-13.29Z" transform="translate(-27.15 -64.71)" fill="#70b94b"/>
  <path id="Path_2129" data-name="Path 2129" d="M1009.86,708.19a121.9,121.9,0,0,0-42.34-.54c-15.89,2.63-32.13,8.41-47.67,4.19-9.12-2.48-17-8.22-25.91-11.41a49.18,49.18,0,0,0-26.75-1.6,45.76,45.76,0,0,0,56.69,61.06,45.919,45.919,0,0,0,29.28.81,45.78,45.78,0,0,0,55.62-44.7c0-1,0-2-.1-3A45.18,45.18,0,0,0,1009.86,708.19Z" transform="translate(-27.15 -64.71)" opacity="0.1"/>
  <rect id="Rectangle_1850" data-name="Rectangle 1850" width="8.86" height="73.02" rx="2.29" transform="translate(706.95 250.42)" fill="#3a3768"/>
  <rect id="Rectangle_1851" data-name="Rectangle 1851" width="4.97" height="24.04" rx="2.29" transform="translate(412.51 193.21)" fill="#3a3768"/>
  <rect id="Rectangle_1852" data-name="Rectangle 1852" width="5.6" height="41.84" rx="2.29" transform="translate(412.33 237.23)" fill="#3a3768"/>
  <rect id="Rectangle_1853" data-name="Rectangle 1853" width="5.33" height="42.2" rx="2.29" transform="translate(412.42 293.71)" fill="#3a3768"/>
  <rect id="Rectangle_1854" data-name="Rectangle 1854" width="296.4" height="602.39" rx="38.99" transform="translate(415.33 113.77)" fill="#3f3d56"/>
  <rect id="Rectangle_1855" data-name="Rectangle 1855" width="41.39" height="8.4" rx="3.87" transform="translate(534.94 131.76)" fill="#e6e8ec"/>
  <circle id="Ellipse_532" data-name="Ellipse 532" cx="4.77" cy="4.77" r="4.77" transform="translate(582.58 131.19)" fill="#e6e8ec"/>
  <path id="Path_2130" data-name="Path 2130" d="M697,194.17H663.1v4.09a19.38,19.38,0,0,1-19.38,19.38H535.54a19.38,19.38,0,0,1-19.38-19.38v-4.09H484.32a23.53,23.53,0,0,0-23.53,23.54V741.64a23.53,23.53,0,0,0,23.53,23.54H697a23.54,23.54,0,0,0,23.54-23.54V217.71A23.54,23.54,0,0,0,697,194.17Z" transform="translate(-27.15 -64.71)" fill="#70b94b"/>
  <rect id="Rectangle_1856" data-name="Rectangle 1856" width="149" height="24" transform="translate(444.53 223.47)" stroke="#70b94b" stroke-miterlimit="10" stroke-width="1" opacity="0.1"/>
  <circle id="Ellipse_533" data-name="Ellipse 533" cx="32" cy="32" r="32" transform="translate(448.53 323.47)" stroke="#70b94b" stroke-miterlimit="10" stroke-width="1" opacity="0.1"/>
  <path id="Path_2131" data-name="Path 2131" d="M498.68,414.18v12h8l10,10.45V403.72l-10,10.46Z" transform="translate(-27.15 -64.71)" fill="#fff"/>
  <circle id="Ellipse_534" data-name="Ellipse 534" cx="32" cy="32" r="32" transform="translate(533.53 323.47)" stroke="#70b94b" stroke-miterlimit="10" stroke-width="1" opacity="0.1"/>
  <path id="Path_2132" data-name="Path 2132" d="M592.68,433.54a3.82,3.82,0,1,0,3.8,3.82,3.82,3.82,0,0,0-3.8-3.82Zm-11.2-34.36a3.82,3.82,0,1,0,3.79,3.82,3.82,3.82,0,0,0-3.79-3.82Zm0,11.46a3.82,3.82,0,1,0,3.79,3.81,3.82,3.82,0,0,0-3.79-3.81Zm0,11.45a3.82,3.82,0,1,0,3.79,3.82,3.82,3.82,0,0,0-3.79-3.82Zm22.4-15.27a3.82,3.82,0,1,0-3.8-3.82,3.82,3.82,0,0,0,3.8,3.82Zm-11.2,15.27a3.82,3.82,0,1,0,3.8,3.82A3.82,3.82,0,0,0,592.68,422.09Zm11.2,0a3.82,3.82,0,1,0,3.8,3.82,3.82,3.82,0,0,0-3.8-3.82Zm0-11.45a3.82,3.82,0,1,0,3.8,3.81,3.82,3.82,0,0,0-3.8-3.81Zm-11.2,0a3.82,3.82,0,1,0,3.8,3.81,3.82,3.82,0,0,0-3.8-3.81Zm0-11.46a3.82,3.82,0,1,0,3.8,3.82A3.82,3.82,0,0,0,592.68,399.18Z" transform="translate(-27.15 -64.71)" fill="#fff"/>
  <g id="Group_1222" data-name="Group 1222" opacity="0.4">
    <circle id="Ellipse_535" data-name="Ellipse 535" cx="32" cy="32" r="32" transform="translate(448.53 419.47)" stroke="#70b94b" stroke-miterlimit="10" stroke-width="1" opacity="0.1"/>
    <path id="Path_2133" data-name="Path 2133" d="M522.68,518.18h-13v13h-4v-13h-13v-4h13v-13h4v13h13Z" transform="translate(-27.15 -64.71)" fill="#fff"/>
  </g>
  <circle id="Ellipse_536" data-name="Ellipse 536" cx="32" cy="32" r="32" transform="translate(618.53 323.47)" stroke="#70b94b" stroke-miterlimit="10" stroke-width="1" opacity="0.1"/>
  <path id="Path_2134" data-name="Path 2134" d="M677.68,400.67a18.24,18.24,0,0,0-18,18.48v14.37a6.08,6.08,0,0,0,6,6.16h6V423.17h-8v-4a14,14,0,0,1,28,0v4h-8v16.5h6a6.07,6.07,0,0,0,6-6.16V419.15a18.24,18.24,0,0,0-18-18.48Z" transform="translate(-27.15 -64.71)" fill="#fff"/>
  <g id="Group_1223" data-name="Group 1223" opacity="0.4">
    <circle id="Ellipse_537" data-name="Ellipse 537" cx="32" cy="32" r="32" transform="translate(533.53 419.47)" stroke="#70b94b" stroke-miterlimit="10" stroke-width="1" opacity="0.1"/>
    <path id="Path_2135" data-name="Path 2135" d="M604.68,512.75v-8a2.31,2.31,0,0,0-2.34-2.28H574a2.31,2.31,0,0,0-2.33,2.28v22.81a2.32,2.32,0,0,0,2.33,2.28h28.33a2.32,2.32,0,0,0,2.34-2.28v-8l9,9.12V503.63Z" transform="translate(-27.15 -64.71)" fill="#fff"/>
  </g>
  <circle id="Ellipse_538" data-name="Ellipse 538" cx="32" cy="32" r="32" transform="translate(618.53 419.47)" stroke="#70b94b" stroke-miterlimit="10" stroke-width="1" opacity="0.1"/>
  <path id="Path_2136" data-name="Path 2136" d="M676.1,524.42a11.44,11.44,0,0,1-11.29,0c-4.42,1.35-7.13,5.82-8.13,9.75h27.55C683.23,530.24,680.53,525.77,676.1,524.42Zm-5.64-21a9.93,9.93,0,1,0,9.92,9.92,9.93,9.93,0,0,0-9.92-9.92Zm0,17.48a7.66,7.66,0,0,1-6.94-4.74h13.87a7.66,7.66,0,0,1-6.93,4.75Z" transform="translate(-27.15 -64.71)" fill="#fff"/>
  <path id="Path_2137" data-name="Path 2137" d="M683.92,528.17h14.76a12.28,12.28,0,0,0-8.13-9,11.469,11.469,0,0,1-5.65,1.49A11.251,11.251,0,0,1,681,520a13.469,13.469,0,0,1-2.62,3.28A12.771,12.771,0,0,1,683.92,528.17Zm-1.5-17.25h9.42a7.66,7.66,0,0,1-6.94,4.72,7.258,7.258,0,0,1-2.38-.42,12,12,0,0,1-.61,2.35,9.928,9.928,0,1,0-5.37-14.79,12.25,12.25,0,0,1,5.88,8.14Z" transform="translate(-27.15 -64.71)" fill="#fff"/>
  <circle id="Ellipse_539" data-name="Ellipse 539" cx="32" cy="32" r="32" transform="translate(533.53 547.47)" fill="#ff6f61"/>
  <path id="Path_2138" data-name="Path 2138" d="M576.25,652.08a23.61,23.61,0,0,1,5.91-4.08,1.87,1.87,0,0,0,1.11-1.74l.17-6.22a30.06,30.06,0,0,1,18.66.5l-.17,6.22a2.07,2.07,0,0,0,1,1.8,21.9,21.9,0,0,1,5.82,4.4,2,2,0,0,0,2.83.08l5.08-4.82a2,2,0,0,0,.08-2.82,34,34,0,0,0-48.07-1.3,2,2,0,0,0-.07,2.83l4.81,5.08a2,2,0,0,0,2.83.07Z" transform="translate(-27.15 -64.71)" fill="#fff"/>
  <circle id="Ellipse_540" data-name="Ellipse 540" cx="25" cy="25" r="25" transform="translate(629.53 218.47)" stroke="#70b94b" stroke-miterlimit="10" stroke-width="1" opacity="0.1"/>
  <path id="Path_2139" data-name="Path 2139" d="M687.33,313.79a11.46,11.46,0,0,1-11.3,0c-4.42,1.35-7.13,5.82-8.13,9.76h27.56C694.46,319.61,691.75,315.14,687.33,313.79Zm-5.65-21a9.93,9.93,0,1,0,9.92,9.93,9.93,9.93,0,0,0-9.92-9.93Zm0,17.49a7.68,7.68,0,0,1-6.94-4.74h13.88a7.7,7.7,0,0,1-6.94,4.75Z" transform="translate(-27.15 -64.71)" fill="#fff"/>
  <path id="Path_2140" data-name="Path 2140" d="M431.73,131.1c-2.33-1.35-5.48-.06-7.08,2.11s-2,5-2.45,7.63c-.89,5.91-1.54,12.7,2.45,17.16-6.52-19.77-25.27-34.92-46-37.13" transform="translate(-27.15 -64.71)" fill="none" stroke="#70b94b" stroke-miterlimit="10" stroke-width="3" opacity="0.1"/>
  <path id="Path_2141" data-name="Path 2141" d="M835.76,457.35c-1.5-.87-3.52,0-4.55,1.36a10.83,10.83,0,0,0-1.58,4.9c-.57,3.81-1,8.17,1.58,11a35.86,35.86,0,0,0-29.55-23.87" transform="translate(-27.15 -64.71)" fill="none" stroke="#70b94b" stroke-miterlimit="10" stroke-width="3" opacity="0.1"/>
  <path id="Path_2142" data-name="Path 2142" d="M326.26,328.07c-1.5-.86-3.52,0-4.55,1.36a10.829,10.829,0,0,0-1.58,4.91c-.57,3.8-1,8.16,1.58,11a35.88,35.88,0,0,0-29.55-23.87" transform="translate(-27.15 -64.71)" fill="none" stroke="#70b94b" stroke-miterlimit="10" stroke-width="3" opacity="0.1"/>
  <path id="Path_2143" data-name="Path 2143" d="M724,795.68c1,1.89,2.88,3.05,4.69,4.08a222.674,222.674,0,0,0,39.56,17.81,2.64,2.64,0,0,0,3.84-1.49c1.58-2.66,3.31-7,2.9-10.51a5.859,5.859,0,0,0,2.63-3.52,17.5,17.5,0,0,1,2.44-5c1.87-2.82,4.13-5.65,4.43-9.08a15.67,15.67,0,0,1,.35-3.64c.53-1.58,1.94-2.62,3-3.88,1.65-2,2.44-4.58,3.19-7.09,3.12-10.43,6.24-20.86,8.84-31.45.84-3.43,1.62-6.87,2.77-10.2,1-2.92,2.28-5.72,3.55-8.52A226.252,226.252,0,0,1,822,693.87a78.476,78.476,0,0,0,3.39,9.24c.68,1.55,1.41,3.08,2.1,4.63,2.61,5.84,2.14,13.34,5.35,18.83q2,3.38,3.94,6.75a13.589,13.589,0,0,1,1.69,3.57c.21.88.23,1.8.38,2.69.68,4,3.93,6.82,5.73,10.39,1.65,3.26,2,7,3,10.59,2.37,8.3,8.19,15.51,8.78,24.16a62.389,62.389,0,0,1-.17,7A59.361,59.361,0,0,0,857,803.9a4.68,4.68,0,0,0,.32,1.18,35.34,35.34,0,0,1-22,14.86c-1.7.34-3.65.7-4.54,2.26-1.07,1.86.14,4.42,2,5.42s4,.9,6,.72a217.893,217.893,0,0,0,42.37-7.82,3.61,3.61,0,0,0,1.84-1,3.71,3.71,0,0,0,.61-2.49,21,21,0,0,0-2.2-9.31l1-.35c.56-4-1.5-7.87-3.1-11.58-2.78-6.47-4.3-13.46-6.5-20.19-4.24-13-11.09-25.13-12.74-38.73-.45-3.74-1.57-7.54-1.81-11.3-.48-7.66-1-15.36-2.67-22.82-1.4-6.14-3.61-12-5-18.21s-1.84-12.74.2-18.68c.58-1.7,1.36-3.31,1.89-5,2-6.61.09-13.77-1.85-20.41q-.92-3.15-1.82-6.28c-.81-2.75-1.61-5.51-2.49-8.24.12-.11.23-.22.35-.35,1.76-2,1.74-5.06,3-7.45.62-1.23,1.56-2.24,2.22-3.44a12.6,12.6,0,0,0,.91-8.34c-.53-2.8-1.59-5.46-2.39-8.19a44.52,44.52,0,0,1-.48-23c.81-3.23,2-6.4,2.17-9.73a28.384,28.384,0,0,0-.61-6.63c-1.55-8.4-4.59-16.92-10.76-22.47-3.29-3-7.74-5.63-8.09-10.19a2.55,2.55,0,0,0-1.66-.06,17.848,17.848,0,0,1-.56-3.17h.05a4.09,4.09,0,0,0,.92,0,1.831,1.831,0,0,0,.74-.21,2.106,2.106,0,0,0,.36-.27,6.511,6.511,0,0,0,1-1.33c.41-.68.78-1.41,1.09-1.91s.81-1.3,1.2-2q1.75-3,3.25-6.1v-.08c.1-.19.19-.39.28-.58l.12-.27.18-.41c0-.1.09-.21.13-.31s.11-.25.16-.38l.14-.33c.05-.12.09-.24.14-.37a3.418,3.418,0,0,0,.13-.34c.05-.12.09-.24.13-.36s.08-.23.13-.35.07-.24.11-.36l.12-.36a1.156,1.156,0,0,1,.1-.35l.1-.37.09-.35.09-.38a.614.614,0,0,1,.07-.34c.07-.12,0-.26.07-.39s0-.22,0-.33l.06-.39v-3.1a7.931,7.931,0,0,0-.23-1.16,11.93,11.93,0,0,0-3.92-5.93,24.552,24.552,0,0,0-6-3.61A4.381,4.381,0,0,1,830,489a11.121,11.121,0,0,1-1.19-2.24c-.88-1.54-2.64-2.23-4.29-2.64s-3.42-.67-4.8-1.72a1.27,1.27,0,0,0-.42-.24,1.09,1.09,0,0,0-.61.13L814.84,484a1.83,1.83,0,0,0-2.12-1.51,5.13,5.13,0,0,0-2.49,1.43A.93.93,0,0,1,810,483l-3,2c-.37.24-1.05.3-1-.16a31.278,31.278,0,0,0-4.31,6,12.876,12.876,0,0,0-.94,2.07h0a1.911,1.911,0,0,1-.13.45.289.289,0,0,0,0,.09,3.283,3.283,0,0,1-.08.41.5.5,0,0,0,0,.12v.52h0a5.521,5.521,0,0,0,0,.58,3.19,3.19,0,0,0,1.73,2.66,3.079,3.079,0,0,0,1.2.19,15.484,15.484,0,0,0,2.54-.52,5.858,5.858,0,0,1,.82-.14,2.565,2.565,0,0,1,.39,0,2.21,2.21,0,0,1,1.44.49l.06.06a16.83,16.83,0,0,0-7,13.79,17.341,17.341,0,0,0,1.76,7.64,2.43,2.43,0,0,0-1.25,2.26,7.68,7.68,0,0,1-.41-2.38c-1.64-.33-2.83,1.59-3.42,3.24a80.529,80.529,0,0,0-2.81,11.41c-.51,2.57-1,5.14-1.52,7.71s-1,5.33-1.38,8a61,61,0,0,0,.93,20.79c-.1.22-.19.45-.28.67-.3.8-1.15,1.48-1.25,2.33-.54,5.09,2.68,9.68,5.72,13.67a3,3,0,0,0,1,1,2.7,2.7,0,0,0,1.41.18,36.072,36.072,0,0,0,3.62-.36c.07.68.15,1.35.23,2,.86,7.18,2.33,14.36,2.32,21.59s-1.38,14.56,1.39,21c.46,1.1,1.35,2,1.44,3.14h.17a65.288,65.288,0,0,0-4.14,10.74c-1.1,4.34-1.33,8.9-2.56,13.2-1.05,3.65-2.8,7-4.21,10.56a58,58,0,0,0-4,18.11,22.629,22.629,0,0,1-1.7,8.31,84.542,84.542,0,0,0-4.24,9.77c-2,5.94-5.37,11.57-6,17.86-.35,3.56.16,7.36-1.33,10.58-.58,1.26-1.44,2.35-2.12,3.54a28.607,28.607,0,0,0-2.31,6L766.88,777a10.721,10.721,0,0,1-2.42,4.87c-.92.88-2.13,1.36-3,2.27-1.4,1.42-1.75,3.5-1.76,5.62a11.8,11.8,0,0,0-3.06,1,33.71,33.71,0,0,1-26.49,0c-1.6-.69-3.42-1.51-5-.72C723.3,791,723,793.79,724,795.68ZM802.87,547a21.549,21.549,0,0,1,3.28-7.59c2.24-3.69,4.6-7.34,6.74-11.11l.61-.59c.17.48.33,1,.48,1.45a34.893,34.893,0,0,1,.89,3.9,18.788,18.788,0,0,1,.28,5l-.14.11a5.329,5.329,0,0,0-1.89,2.11,4.25,4.25,0,0,0,0,2.64l-.09.1.1-.07c.35,1.38,1,2.8.79,4.2-.23,1.69-1.59,2.92-2.44,4.37-2,3.49-1.36,8.79-4.65,10.93l-.06.14h0a4.74,4.74,0,0,1-3.23-2.66h0C803.8,555.66,802.2,551.28,802.87,547Z" transform="translate(-27.15 -64.71)" fill="url(#linear-gradient)"/>
  <path id="Path_2144" data-name="Path 2144" d="M884.91,817.22a3.47,3.47,0,0,1-.63,2.45,3.889,3.889,0,0,1-1.92,1,238.61,238.61,0,0,1-44.14,7.72c-2.14.16-4.4.28-6.29-.71s-3.15-3.52-2-5.35c.93-1.54,3-1.9,4.73-2.23a37,37,0,0,0,23.16-15,10.739,10.739,0,0,1,2.52-2.92c1.92-1.31,4.47-1,6.74-.55,4,.82,9.31,1.79,12.92,3.75S884.85,813.39,884.91,817.22Z" transform="translate(-27.15 -64.71)" fill="#3f3d56"/>
  <path id="Path_2145" data-name="Path 2145" d="M884.91,817.22a3.47,3.47,0,0,1-.63,2.45,3.889,3.889,0,0,1-1.92,1,238.61,238.61,0,0,1-44.14,7.72c-2.14.16-4.4.28-6.29-.71s-3.15-3.52-2-5.35c.93-1.54,3-1.9,4.73-2.23a37,37,0,0,0,23.16-15,10.739,10.739,0,0,1,2.52-2.92c1.92-1.31,4.47-1,6.74-.55,4,.82,9.31,1.79,12.92,3.75S884.85,813.39,884.91,817.22Z" transform="translate(-27.15 -64.71)" opacity="0.1"/>
  <path id="Path_2146" data-name="Path 2146" d="M768.7,816.25a3.55,3.55,0,0,1-1.87,1.72,3.831,3.831,0,0,1-2.13-.25,238.823,238.823,0,0,1-41.22-17.57c-1.88-1-3.84-2.16-4.89-4s-.73-4.67,1.2-5.6c1.62-.78,3.52,0,5.18.71a36.9,36.9,0,0,0,27.6,0,10.689,10.689,0,0,1,3.71-1.08c2.31-.05,4.3,1.58,6,3.21,2.92,2.87,6.83,6.58,8.79,10.18S770.73,813,768.7,816.25Z" transform="translate(-27.15 -64.71)" fill="#3f3d56"/>
  <path id="Path_2147" data-name="Path 2147" d="M768.7,816.25a3.55,3.55,0,0,1-1.87,1.72,3.831,3.831,0,0,1-2.13-.25,238.823,238.823,0,0,1-41.22-17.57c-1.88-1-3.84-2.16-4.89-4s-.73-4.67,1.2-5.6c1.62-.78,3.52,0,5.18.71a36.9,36.9,0,0,0,27.6,0,10.689,10.689,0,0,1,3.71-1.08c2.31-.05,4.3,1.58,6,3.21,2.92,2.87,6.83,6.58,8.79,10.18S770.73,813,768.7,816.25Z" transform="translate(-27.15 -64.71)" opacity="0.1"/>
  <path id="Path_2148" data-name="Path 2148" d="M844.92,624.75c1.49,4,2.74,8,4,12l1.9,6.2c2,6.55,4,13.61,1.93,20.14-.55,1.69-1.36,3.28-2,5-2.12,5.86-1.63,12.37-.21,18.44s3.72,11.9,5.18,18c1.77,7.36,2.28,15,2.78,22.51.25,3.71,1.41,7.46,1.89,11.15,1.72,13.41,8.85,25.43,13.27,38.21,2.29,6.63,3.87,13.52,6.78,19.91,1.66,3.66,3.81,7.45,3.23,11.42-8.13,2.88-17.14,2.83-24.8-1.12a2.54,2.54,0,0,1-1.68-2.33,55.188,55.188,0,0,1-.8-12,58.528,58.528,0,0,0,.17-6.88c-.61-8.53-6.68-15.64-9.14-23.84-1-3.49-1.46-7.22-3.18-10.44-1.88-3.52-5.26-6.33-6-10.25-.16-.88-.18-1.78-.39-2.65a13.281,13.281,0,0,0-1.77-3.53L832,728c-3.35-5.42-2.86-12.82-5.57-18.58-.72-1.53-1.49-3-2.2-4.56a76.372,76.372,0,0,1-3.53-9.12,218.224,218.224,0,0,0-16.5,28.89,89.743,89.743,0,0,0-3.7,8.41c-1.2,3.28-2,6.68-2.89,10.06-2.7,10.45-6,20.74-9.21,31a19.324,19.324,0,0,1-3.32,7c-1.1,1.24-2.56,2.26-3.12,3.83a14.711,14.711,0,0,0-.36,3.58c-.32,3.39-2.67,6.18-4.62,9a16.89,16.89,0,0,0-2.54,5,5.86,5.86,0,0,1-8,3.75h-.08a17.6,17.6,0,0,1-2.28-1.36,42.12,42.12,0,0,1-5.37-4,31,31,0,0,1-4-4.72,2.28,2.28,0,0,1,1.14-3.46h0c-.21-2.78-.27-5.95,1.73-7.87.93-.9,2.19-1.38,3.15-2.24a10.4,10.4,0,0,0,2.52-4.8q5.12-16.12,10.22-32.24a27.406,27.406,0,0,1,2.41-5.94c.71-1.18,1.6-2.25,2.21-3.49,1.55-3.18,1-6.92,1.38-10.44.65-6.21,4.13-11.75,6.24-17.61a81.523,81.523,0,0,1,4.42-9.65,21.16,21.16,0,0,0,1.77-8.19,54.692,54.692,0,0,1,4.16-17.87c1.46-3.48,3.29-6.81,4.38-10.42,1.29-4.24,1.52-8.74,2.68-13a62.471,62.471,0,0,1,4.33-10.64c1.45-3,2.94-6.07,5.33-8.4,3.92-3.82,9.69-5.07,15.16-5.24S839.47,625.32,844.92,624.75Z" transform="translate(-27.15 -64.71)" fill="#3f3d56"/>
  <path id="Path_2149" data-name="Path 2149" d="M811.35,546.87q10.56-6.24,20.89-12.88a13.27,13.27,0,0,1-2.61-7.67q0-.165,0-.33c-.1-2.69.92-5-2.47-4.65a64.358,64.358,0,0,0-9.63,2c-.9.23-8.7,3.1-9,2.81a19.2,19.2,0,0,1,3.77,7.06,34.242,34.242,0,0,1,.93,3.85C813.91,540.5,813.94,544.54,811.35,546.87Z" transform="translate(-27.15 -64.71)" fill="#a0616a"/>
  <path id="Path_2150" data-name="Path 2150" d="M801.9,593c.9,7.08,2.43,14.17,2.42,21.29s-1.44,14.37,1.45,20.75c.48,1.08,1.4,1.92,1.5,3.1,4,.69,7.9-1.18,11.71-2.53a47.571,47.571,0,0,1,10.8-2.42c3-.3,6.08-.32,9.06-.89a14.1,14.1,0,0,0,7.83-4c1.83-2,1.81-5,3.09-7.35.65-1.21,1.63-2.2,2.32-3.39a11.891,11.891,0,0,0,.94-8.23,83.6,83.6,0,0,0-2.49-8.08,41.53,41.53,0,0,1-.5-22.68c.84-3.19,2.06-6.32,2.26-9.61a26.732,26.732,0,0,0-.63-6.54c-1.62-8.28-4.79-16.69-11.21-22.16-3.43-2.93-8.07-5.56-8.43-10-1.48-.58-3.07.41-4.34,1.35l-14.26,10.51a5.34,5.34,0,0,0-2,2.09c-.89,2.13,1.16,4.47.83,6.77-.24,1.67-1.66,2.88-2.54,4.32-2.1,3.43-1.42,8.66-4.85,10.77-.31.64-.6,1.3-.86,2a48.639,48.639,0,0,0-2.45,10.8A56.2,56.2,0,0,0,801.9,593Z" transform="translate(-27.15 -64.71)" fill="#3f3d56"/>
  <path id="Path_2151" data-name="Path 2151" d="M808.57,526.17a19.2,19.2,0,0,1,3.77,7.06,15.811,15.811,0,0,0,3.46.38c5.82,0,9.72-6.67,12.61-11.25-.09-2.69,2.14-1.35-1.25-1a64.358,64.358,0,0,0-9.63,2C816.63,523.59,808.83,526.46,808.57,526.17Z" transform="translate(-27.15 -64.71)" opacity="0.1"/>
  <circle id="Ellipse_541" data-name="Ellipse 541" cx="16.36" cy="16.36" r="16.36" transform="translate(772.29 434.81)" fill="#a0616a"/>
  <rect id="Rectangle_1857" data-name="Rectangle 1857" width="12.27" height="23.86" rx="3.33" transform="translate(782.163 469.361) rotate(-132.39)" fill="#3f3d56"/>
  <rect id="Rectangle_1858" data-name="Rectangle 1858" width="12.27" height="23.86" rx="3.33" transform="translate(782.163 469.361) rotate(-132.39)" opacity="0.1"/>
  <circle id="Ellipse_542" data-name="Ellipse 542" cx="1.36" cy="1.36" r="1.36" transform="translate(788.31 452.88)" fill="#fff"/>
  <path id="Path_2152" data-name="Path 2152" d="M801.9,593c12.62-1.86,24.08-9.44,32.85-18.84a14.94,14.94,0,0,0,3.71-5.55,16.762,16.762,0,0,0,.45-5.39L838.7,556c-.09-3.16-.22-6.44-1.75-9.2s-4.94-4.75-7.88-3.6c-7.73,3-12.76,9.86-17.18,16.88a71.9,71.9,0,0,1-4.13,6.35c-.75.95-1.77,1.92-3,1.79a2.26,2.26,0,0,1-.75-.2,48.642,48.642,0,0,0-2.45,10.8A56.2,56.2,0,0,0,801.9,593Z" transform="translate(-27.15 -64.71)" opacity="0.1"/>
  <path id="Path_2153" data-name="Path 2153" d="M800.77,550.84a20.741,20.741,0,0,1,3.42-7.5c4.89-7.65,10.39-15.12,13-23.83-3.81.69-4.41,7.25-8.27,7.54l.3-4.73c0-.8,0-1.77-.65-2.19s-1.81.13-2.24.92-.52,1.75-.92,2.56-1.34,1.53-2.17,1.17l-.34-1.57a2.4,2.4,0,0,0-2.89,2.44,7.239,7.239,0,0,1-.43-2.35c-1.71-.32-2.95,1.57-3.56,3.2a75.934,75.934,0,0,0-2.94,11.25l-1.57,7.61c-.55,2.63-1.09,5.26-1.45,7.91a57.3,57.3,0,0,0,1.1,21.08,68,68,0,0,0,6.09-3.81c1.51-1.28,3.2-2.73,3.77-4.68C802.43,560.94,799.94,555.79,800.77,550.84Z" transform="translate(-27.15 -64.71)" fill="#a0616a"/>
  <path id="Path_2154" data-name="Path 2154" d="M829.07,541.16c2.94-1.15,6.35.84,7.88,3.6s1.66,6,1.75,9.2l.2,7.24a16.513,16.513,0,0,1-.44,5.39,15.12,15.12,0,0,1-3.7,5.55c-9.7,10.39-22.67,18.54-36.87,19.23a2.939,2.939,0,0,1-1.47-.18,3.2,3.2,0,0,1-1-1c-3.17-3.94-6.52-8.47-6-13.49.09-.84,1-1.52,1.3-2.3a20.29,20.29,0,0,1,9.83-10.4l.86-.4a5,5,0,0,0,3.37,2.64c1.2.12,2.23-.84,3-1.79a72.082,72.082,0,0,0,4.13-6.36C816.31,551,821.35,544.17,829.07,541.16Z" transform="translate(-27.15 -64.71)" fill="#3f3d56"/>
  <path id="Path_2155" data-name="Path 2155" d="M828.06,526.58c-1.39-.72-1.61-2.57-1.75-4.13a40.941,40.941,0,0,0-.83-5.4c-.43-2-1.14-4.06-2.84-5.12a4.15,4.15,0,0,0-6.31,3.09,1.41,1.41,0,0,1-.28.93,1,1,0,0,1-.48.25,3.23,3.23,0,0,1-3.79-2.14c-.29-1-.07-2.29-.78-3.11s-1.55-.8-2.24-1.34a3.89,3.89,0,0,1-1.13-3.2c0-1.49.2-3.27-1-4.19-1.81-1.41-4.53.83-6.66,0a3.27,3.27,0,0,1-1.83-3.19,7.92,7.92,0,0,1,1.3-3.66,30.719,30.719,0,0,1,4.49-5.91c0,.44.69.39,1.07.15l3.16-1.92a.85.85,0,0,0,.25.91,5.43,5.43,0,0,1,2.59-1.4,1.9,1.9,0,0,1,2.21,1.49l4-1.73a.83.83,0,0,1,1.07.11,14.232,14.232,0,0,0,5,1.69c1.72.4,3.55,1.09,4.47,2.61a10.792,10.792,0,0,0,1.25,2.2,4.67,4.67,0,0,0,1.51.89,26.2,26.2,0,0,1,6.3,3.55,11.88,11.88,0,0,1,4.09,5.86c1.08,3.89-.48,8-2.29,11.59a74.262,74.262,0,0,1-4.64,7.95c-.64,1-1.52,2.89-2.55,3.47A4.78,4.78,0,0,1,828.06,526.58Z" transform="translate(-27.15 -64.71)" fill="#3f3d56"/>
  <path id="Path_2156" data-name="Path 2156" d="M800,498.14c2.13.82,4.85-1.42,6.66,0,1.17.92,1,2.7,1,4.19a3.89,3.89,0,0,0,1.13,3.2c.69.54,1.67.67,2.24,1.34s.49,2.07.78,3.11a3.23,3.23,0,0,0,3.79,2.14,1,1,0,0,0,.48-.25,1.41,1.41,0,0,0,.28-.93,4.15,4.15,0,0,1,6.31-3.09c1.7,1.06,2.41,3.16,2.84,5.12a40.921,40.921,0,0,1,.83,5.4c.14,1.56.36,3.41,1.75,4.13a4.78,4.78,0,0,0,3.42.3c1-.58,1.91-2.5,2.55-3.47a74.239,74.239,0,0,0,4.64-8,24.768,24.768,0,0,0,2.46-6.8c.72,3.68-.76,7.5-2.46,10.89a74.241,74.241,0,0,1-4.64,7.95c-.64,1-1.52,2.89-2.55,3.47a4.78,4.78,0,0,1-3.42-.3c-1.39-.72-1.61-2.57-1.75-4.13a40.931,40.931,0,0,0-.83-5.4c-.43-2-1.14-4.06-2.84-5.12a4.15,4.15,0,0,0-6.31,3.09,1.411,1.411,0,0,1-.28.93,1,1,0,0,1-.48.25,3.23,3.23,0,0,1-3.79-2.14c-.29-1-.07-2.29-.78-3.11s-1.55-.8-2.24-1.34a3.89,3.89,0,0,1-1.13-3.2c0-1.49.2-3.27-1-4.19-1.81-1.41-4.53.83-6.66,0a3.27,3.27,0,0,1-1.83-3.19,5.819,5.819,0,0,1,.5-2.09A2.71,2.71,0,0,0,800,498.14Z" transform="translate(-27.15 -64.71)" opacity="0.1"/>
</svg>
