<svg id="Group_1230" data-name="Group 1230" xmlns="http://www.w3.org/2000/svg" xmlns:xlink="http://www.w3.org/1999/xlink" width="129" height="134" viewBox="0 0 129 134">
  <defs>
    <linearGradient id="linear-gradient" x1="0.5" x2="0.5" y2="1" gradientUnits="objectBoundingBox">
      <stop offset="0" stop-color="#63e285"/>
      <stop offset="1" stop-color="#2c6e3e"/>
    </linearGradient>
  </defs>
  <path id="Polygon_15" data-name="Polygon 15" d="M48.374,15.925a12,12,0,0,1,20.252,0l36.649,57.636A12,12,0,0,1,95.149,92h-73.3A12,12,0,0,1,11.725,73.561Z" transform="translate(0 126) rotate(-90)" fill="#5f2814"/>
  <g id="Polygon_14" data-name="Polygon 14" transform="translate(24 134) rotate(-90)" fill="url(#linear-gradient)">
    <path d="M 21.89201736450195 102.5000076293945 C 18.36905479431152 102.5000076293945 15.2548360824585 100.6556625366211 13.56145477294922 97.56635284423828 C 11.86807250976563 94.47708129882813 11.98849105834961 90.85968017578125 13.88352680206299 87.88982391357422 L 58.99148941040039 17.19820785522461 C 59.89751052856445 15.77835369110107 61.09136199951172 14.67040824890137 62.53990936279297 13.90513515472412 C 63.89801788330078 13.18764400482178 65.44029235839844 12.80838966369629 67 12.80838966369629 C 68.55970764160156 12.80838966369629 70.10198211669922 13.18764400482178 71.46009063720703 13.90513515472412 C 72.90863800048828 14.67040824890137 74.10247039794922 15.77835369110107 75.00847625732422 17.19820785522461 L 120.1164703369141 87.88982391357422 C 122.0113067626953 90.859375 122.1315612792969 94.47664642333984 120.4381256103516 97.56604766845703 C 118.7446365356445 100.655517578125 115.6305847167969 102.4999923706055 112.1080017089844 102.4999923706055 L 109.6079635620117 102.4999923706055 L 21.89201736450195 102.5000076293945 Z" stroke="none"/>
    <path d="M 67 15.30838775634766 C 64.5615234375 15.30838775634766 62.41069793701172 16.48734283447266 61.0989990234375 18.54300689697266 L 15.99102020263672 89.23458862304688 C 15.26808166503906 90.36756896972656 14.89199829101563 91.59130859375 14.87323760986328 92.87184906005859 C 14.85562133789063 94.07390594482422 15.16007995605469 95.28170776367188 15.75372314453125 96.36468505859375 C 16.34734344482422 97.44766235351563 17.20173645019531 98.35402679443359 18.22456359863281 98.98578643798828 C 19.31414031982422 99.65876770019531 20.54804229736328 100.0000076293945 21.89202117919922 100.0000076293945 L 112.1079559326172 99.99998474121094 L 112.1079559326172 101.2499847412109 L 112.1079788208008 99.99998474121094 C 113.45166015625 99.99998474121094 114.6853790283203 99.65874481201172 115.7748565673828 98.98574829101563 C 116.7976989746094 98.35392761230469 117.6521606445313 97.44746398925781 118.2458572387695 96.36438751220703 C 118.8395385742188 95.28130340576172 119.14404296875 94.07344818115234 119.1264801025391 92.87138366699219 C 119.1077575683594 91.5909423828125 118.7317810058594 90.36737060546875 118.0089569091797 89.23460388183594 L 72.90098571777344 18.54298400878906 C 71.58927917480469 16.48734283447266 69.43846130371094 15.30838775634766 67 15.30838775634766 M 67 10.30838775634766 C 70.87857055664063 10.30838775634766 74.75714874267578 12.15673828125 77.11598205566406 15.85342407226563 L 122.2239608764648 86.54502868652344 C 127.3207855224609 94.53257751464844 121.5826950073242 104.9999847412109 112.1079864501953 104.9999847412109 C 112.1074066162109 104.9999847412109 112.1085357666016 104.9999847412109 112.1079559326172 104.9999847412109 L 21.89202117919922 105.0000076293945 C 12.41628265380859 105.0000076293945 6.678901672363281 94.53306579589844 11.77601623535156 86.54502868652344 L 56.88400268554688 15.85342407226563 C 59.24284362792969 12.15673828125 63.12142181396484 10.30838775634766 67 10.30838775634766 Z" stroke="none" fill="#fff"/>
  </g>
</svg>
