<svg xmlns="http://www.w3.org/2000/svg" xmlns:xlink="http://www.w3.org/1999/xlink" width="129" height="134" viewBox="0 0 129 134">
  <defs>
    <linearGradient id="linear-gradient" x1="0.5" x2="0.5" y2="1" gradientUnits="objectBoundingBox">
      <stop offset="0" stop-color="#63e285"/>
      <stop offset="1" stop-color="#2c6e3e"/>
    </linearGradient>
  </defs>
  <g id="Group_1228" data-name="Group 1228" transform="translate(-906.5 -482)">
    <path id="Polygon_15" data-name="Polygon 15" d="M48.374,15.925a12,12,0,0,1,20.252,0l36.649,57.636A12,12,0,0,1,95.149,92h-73.3A12,12,0,0,1,11.725,73.561Z" transform="translate(1035.5 491) rotate(90)" fill="#5f2814"/>
    <g id="Polygon_14" data-name="Polygon 14" transform="translate(1011.5 482) rotate(90)" fill="url(#linear-gradient)">
      <path d="M 112.1079788208008 102.5000076293945 L 21.89201736450195 102.5000076293945 C 18.36905479431152 102.5000076293945 15.2548360824585 100.6556625366211 13.56145477294922 97.56635284423828 C 11.86807250976563 94.47708129882813 11.98849105834961 90.85968017578125 13.88352680206299 87.88982391357422 L 58.99148941040039 17.19820785522461 C 59.89751052856445 15.77835369110107 61.09136199951172 14.67040824890137 62.53990936279297 13.90513515472412 C 63.89801788330078 13.18764400482178 65.44029235839844 12.80838966369629 67 12.80838966369629 C 68.55970764160156 12.80838966369629 70.10199737548828 13.18764400482178 71.46010589599609 13.90513515472412 C 72.90863800048828 14.67040824890137 74.10249328613281 15.77835369110107 75.00849151611328 17.19820785522461 L 120.1164703369141 87.88982391357422 C 122.0115127563477 90.85968017578125 122.1319274902344 94.47708129882813 120.4385452270508 97.56635284423828 C 118.7451629638672 100.6556625366211 115.6309432983398 102.5000076293945 112.1079788208008 102.5000076293945 Z" stroke="none"/>
      <path d="M 67 15.30838775634766 C 64.5615234375 15.30838775634766 62.41069793701172 16.48734283447266 61.0989990234375 18.54300689697266 L 15.99102020263672 89.23458862304688 C 15.26808166503906 90.36756896972656 14.89199829101563 91.59130859375 14.87323760986328 92.87184906005859 C 14.85562133789063 94.07390594482422 15.16007995605469 95.28170776367188 15.75372314453125 96.36468505859375 C 16.34734344482422 97.44766235351563 17.20173645019531 98.35402679443359 18.22456359863281 98.98578643798828 C 19.31414031982422 99.65876770019531 20.54804229736328 100.0000076293945 21.89202117919922 100.0000076293945 L 112.1079788208008 100.0000076293945 C 113.4519424438477 100.0000076293945 114.6858596801758 99.65876770019531 115.7754364013672 98.98576354980469 C 116.7982406616211 98.35402679443359 117.6526641845703 97.44766235351563 118.2462768554688 96.36468505859375 C 118.8398971557617 95.28170776367188 119.1443786621094 94.07390594482422 119.1267623901367 92.87184906005859 C 119.1079788208008 91.59130859375 118.7319030761719 90.36756896972656 118.0089569091797 89.23458862304688 L 72.9010009765625 18.54298400878906 C 71.58929443359375 16.48734283447266 69.4384765625 15.30838775634766 67 15.30838775634766 M 67 10.30838775634766 C 70.87857818603516 10.30838775634766 74.75715637207031 12.15673828125 77.11599731445313 15.85342407226563 L 122.2239608764648 86.54502868652344 C 127.3210983276367 94.53306579589844 121.5837020874023 105.0000076293945 112.1079788208008 105.0000076293945 L 21.89202117919922 105.0000076293945 C 12.41628265380859 105.0000076293945 6.678901672363281 94.53306579589844 11.77601623535156 86.54502868652344 L 56.88400268554688 15.85342407226563 C 59.24284362792969 12.15673828125 63.12142181396484 10.30838775634766 67 10.30838775634766 Z" stroke="none" fill="#fff"/>
    </g>
  </g>
</svg>
