<?xml version="1.0" encoding="utf-8"?>
<!-- Generator: Adobe Illustrator 23.0.6, SVG Export Plug-In . SVG Version: 6.00 Build 0)  -->
<svg version="1.1" xmlns="http://www.w3.org/2000/svg" xmlns:xlink="http://www.w3.org/1999/xlink" x="0px" y="0px"
	 viewBox="0 0 612.39 564.72" style="enable-background:new 0 0 612.39 564.72;" xml:space="preserve">
<style type="text/css">
	.st0{fill:url(#SVGID_1_);}
	.st1{fill:url(#SVGID_2_);}
	.st2{fill:url(#SVGID_3_);}
	.st3{fill:url(#SVGID_4_);}
</style>
<g id="Layer_2">
	<linearGradient id="SVGID_1_" gradientUnits="userSpaceOnUse" x1="25.3022" y1="179.2333" x2="452.9914" y2="179.2333">
		<stop  offset="0" style="stop-color:#A47527"/>
		<stop  offset="1" style="stop-color:#561E12"/>
	</linearGradient>
	<path class="st0" d="M396.63,349.88c0,0,38.54-60.22,16.86-140.51c-21.68-80.29-100.36-95.54-100.36-95.54
		s-142.92-40.95-191.89-5.62s-52.99,73.87-57.01,122.84c0,0-28.1-107.59-32.92-124.45S-10.43-29.09,179.85,20.69
		c0,0,171.02,28.9,202.33,48.98c0,0,74.67,31.31,70.65,118.03S435.17,329,396.63,349.88z"/>
	
		<linearGradient id="SVGID_2_" gradientUnits="userSpaceOnUse" x1="628.7345" y1="920.0161" x2="1056.4237" y2="920.0161" gradientTransform="matrix(-1 -5.102670e-03 5.102670e-03 -1 1211.6774 1302.2053)">
		<stop  offset="0" style="stop-color:#A47527"/>
		<stop  offset="1" style="stop-color:#561E12"/>
	</linearGradient>
	<path class="st1" d="M217.19,206.46c0,0-38.85,60.02-17.58,140.42s99.87,96.06,99.87,96.06s142.7,41.68,191.86,6.6
		s53.37-73.59,57.63-122.55c0,0,27.55,107.73,32.28,124.61s41.06,135.9-148.97,85.15c0,0-170.87-29.78-202.08-50.01
		c0,0-74.51-31.69-70.05-118.38S178.55,227.14,217.19,206.46z"/>
	
		<linearGradient id="SVGID_3_" gradientUnits="userSpaceOnUse" x1="40.5004" y1="886.9488" x2="468.1895" y2="886.9488" gradientTransform="matrix(-0.0174 0.9998 -0.9998 -0.0174 1289.7913 -26.9406)">
		<stop  offset="0" style="stop-color:#60B341"/>
		<stop  offset="1" style="stop-color:#89C52E"/>
	</linearGradient>
	<path class="st2" d="M225.19,366.41c0,0,59.54,39.58,140.19,19.3c80.65-20.28,97.28-98.68,97.28-98.68s43.43-142.18,8.96-191.76
		S398.69,41,349.79,36.13c0,0,108.06-26.22,125-30.75s136.4-39.38,83.31,150.01c0,0-31.88,170.49-52.49,201.45
		c0,0-32.61,74.11-119.24,68.59S245.39,405.31,225.19,366.41z"/>
	
		<linearGradient id="SVGID_4_" gradientUnits="userSpaceOnUse" x1="944.7486" y1="377.9099" x2="1372.4377" y2="377.9099" gradientTransform="matrix(-0.0183 -0.9998 0.9998 -0.0183 -149.2908 1514.2006)">
		<stop  offset="0" style="stop-color:#89C52E"/>
		<stop  offset="1" style="stop-color:#60B341"/>
	</linearGradient>
	<path class="st3" d="M375.13,188.32c0,0-60.91-37.43-140.79-14.29s-93.7,102.09-93.7,102.09s-38.33,143.64-2.11,191.96
		s74.82,51.63,123.86,54.75c0,0-107.06,30.06-123.83,35.19c-16.77,5.12-134.9,44.22-88.61-146.94c0,0,25.78-171.52,45.27-203.19
		c0,0,29.94-75.23,116.72-72.8S353.56,150.17,375.13,188.32z"/>
</g>
<g id="Layer_3">
</g>
</svg>
