<?xml version="1.0" encoding="utf-8"?>
<!-- Generator: Adobe Illustrator 16.0.0, SVG Export Plug-In . SVG Version: 6.00 Build 0)  -->
<!DOCTYPE svg PUBLIC "-//W3C//DTD SVG 1.1//EN" "http://www.w3.org/Graphics/SVG/1.1/DTD/svg11.dtd">
<svg version="1.1" id="Layer_1" xmlns="http://www.w3.org/2000/svg" xmlns:xlink="http://www.w3.org/1999/xlink" x="0px" y="0px"
	 width="200px" height="200px" viewBox="0 0 200 200" enable-background="new 0 0 200 200" xml:space="preserve">
<g>
	<path fill-rule="evenodd" clip-rule="evenodd" fill="#231F20" d="M191.024,109.178c-1.301,0-2.352,1.051-2.352,2.34
		c0,1.302,1.051,2.352,2.352,2.352c1.296,0,2.34-1.05,2.34-2.352C193.364,110.229,192.32,109.178,191.024,109.178L191.024,109.178
		L191.024,109.178L191.024,109.178z M191.024,113.587c-1.142,0-2.063-0.921-2.063-2.069c0-1.136,0.921-2.057,2.063-2.057
		c1.137,0,2.058,0.921,2.058,2.057C193.082,112.666,192.161,113.587,191.024,113.587L191.024,113.587L191.024,113.587
		L191.024,113.587z"/>
	<path fill-rule="evenodd" clip-rule="evenodd" fill="#231F20" d="M192.229,110.903c0-0.221-0.099-0.454-0.295-0.564
		c-0.196-0.117-0.418-0.129-0.639-0.129l0,0h-1.143v2.621h0.319v-1.209h0.59l0.749,1.209h0.381l-0.792-1.209l0,0
		C191.867,111.609,192.229,111.419,192.229,110.903L192.229,110.903L192.229,110.903L192.229,110.903z M190.964,111.37h-0.491
		v-0.927h0.749l0,0c0.326,0,0.682,0.049,0.682,0.454C191.903,111.432,191.333,111.37,190.964,111.37L190.964,111.37L190.964,111.37
		L190.964,111.37z"/>
	<path fill-rule="evenodd" clip-rule="evenodd" fill="#231F20" d="M175.476,86.688c-2.742,0-10.459,0.286-15.546,1.029l0,0v25.604
		h8.169v-9.26l0,0c1.029,0.344,6.921,0.915,8.978,0.915c2.058,0,16.803-0.629,16.803-9.373
		C193.879,86.231,178.22,86.688,175.476,86.688L175.476,86.688L175.476,86.688L175.476,86.688z M175.934,100.52
		c-2.629,0-5.663-0.229-7.835-1.029l0,0v-7.887l0,0c2.744-0.229,7.092-0.4,8.35-0.4c1.257,0,7.774,0.287,7.829,4.515
		C184.334,100.119,178.563,100.52,175.934,100.52L175.934,100.52L175.934,100.52L175.934,100.52z"/>
	<path fill-rule="evenodd" clip-rule="evenodd" fill="#231F20" d="M35.084,98.007c-2.207-0.493-10.516-1.829-12.688-2.115
		c-2.857-0.343-4.515-0.857-4.515-2.458c0-2.172,4.225-1.796,7.659-1.658c4.229,0.171,12.173,2.801,14.459,3.772l0,0l2.687-5.887
		l0,0c-4.401-2.172-12.859-3.2-18.231-3.2c-3.887,0.057-16.872,0.973-17.032,7.887c-0.114,4.915,4.189,6.699,9.658,8.058
		c4.687,0.972,9.888,1.43,13.432,2.172c4.54,0.952,4.516,4.173,0.915,4.516c-6.214,0.453-16.747-2.629-21.547-5.03l0,0l-3.086,6.287
		l0,0c6.687,3.259,17.03,4.046,20.575,4.002c4.572-0.058,16.688-0.515,16.688-7.773C44.057,101.802,39.942,99.093,35.084,98.007
		L35.084,98.007L35.084,98.007L35.084,98.007z"/>
	<polygon fill-rule="evenodd" clip-rule="evenodd" fill="#231F20" points="71.339,97.665 54.422,97.665 54.422,87.72 45.734,87.72 
		45.734,113.325 54.422,113.325 54.422,102.809 71.339,102.809 71.339,113.325 80.027,113.325 80.027,87.72 71.339,87.72 
		71.339,97.665 71.339,97.665 	"/>
	<path fill-rule="evenodd" clip-rule="evenodd" fill="#231F20" d="M106.797,87.72H96.108l-15.03,25.605h6.743l3.487-5.831h16.959
		l3.502,5.831h10.459L106.797,87.72L106.797,87.72L106.797,87.72z M94.28,102.351l5.374-9.201l5.525,9.201H94.28L94.28,102.351
		L94.28,102.351z"/>
	<path fill-rule="evenodd" clip-rule="evenodd" fill="#231F20" d="M157.4,95.204c-0.06-9.373-15.945-8.516-18.688-8.516
		s-10.459,0.286-15.545,1.029l0,0v25.604h8.29V91.604l0,0c2.972-0.229,7.197-0.4,8.455-0.4s7.716-0.229,7.772,4.401
		c0.055,4.401-6.001,4.458-8.631,4.458c-1.656,0-3.027-0.343-4.457-0.686l0,0l-1.543,2.629l12.802,11.316h12.282l-11.145-9.799l0,0
		C151.723,102.573,157.435,100.361,157.4,95.204L157.4,95.204L157.4,95.204L157.4,95.204z"/>
</g>
</svg>
