<svg id="undraw_heatmap_uyye" xmlns="http://www.w3.org/2000/svg" width="1098.75" height="632.371" viewBox="0 0 1098.75 632.371">
  <ellipse id="Ellipse_543" data-name="Ellipse 543" cx="549.375" cy="31.597" rx="549.375" ry="31.597" transform="translate(0 569.177)" fill="#f2f2f2"/>
  <rect id="Rectangle_1859" data-name="Rectangle 1859" width="825.318" height="26.257" transform="translate(174.967)" fill="#f2f2f2"/>
  <circle id="Ellipse_544" data-name="Ellipse 544" cx="6.795" cy="6.795" r="6.795" transform="translate(190.258 5.946)" fill="#70b94b"/>
  <circle id="Ellipse_545" data-name="Ellipse 545" cx="6.795" cy="6.795" r="6.795" transform="translate(212.343 5.946)" fill="#70b94b"/>
  <circle id="Ellipse_546" data-name="Ellipse 546" cx="6.795" cy="6.795" r="6.795" transform="translate(234.428 5.946)" fill="#70b94b"/>
  <path id="Path_2157" data-name="Path 2157" d="M175.552,415.277l-.585.5V592.9H1000.28V281.779l-9.831.746Z" fill="#3f3d56"/>
  <rect id="Rectangle_1860" data-name="Rectangle 1860" width="230.47" height="9.293" transform="translate(234.529 175.641)" fill="#3f3d56"/>
  <rect id="Rectangle_1861" data-name="Rectangle 1861" width="230.47" height="9.293" transform="translate(234.529 196.086)" fill="#3f3d56"/>
  <rect id="Rectangle_1862" data-name="Rectangle 1862" width="78.063" height="9.293" transform="translate(234.529 216.531)" fill="#3f3d56"/>
  <rect id="Rectangle_1863" data-name="Rectangle 1863" width="230.47" height="9.293" transform="translate(704.529 433.641)" fill="#fff"/>
  <rect id="Rectangle_1864" data-name="Rectangle 1864" width="230.47" height="9.293" transform="translate(704.529 454.086)" fill="#fff"/>
  <rect id="Rectangle_1865" data-name="Rectangle 1865" width="78.063" height="9.293" transform="translate(704.529 474.531)" fill="#fff"/>
  <circle id="Ellipse_547" data-name="Ellipse 547" cx="9.066" cy="9.066" r="9.066" transform="translate(552.27 566.203)" fill="#f2f2f2"/>
  <circle id="Ellipse_548" data-name="Ellipse 548" cx="9.066" cy="9.066" r="9.066" transform="translate(578.56 567.11)" fill="#f2f2f2"/>
  <circle id="Ellipse_549" data-name="Ellipse 549" cx="9.066" cy="9.066" r="9.066" transform="translate(604.851 568.016)" fill="#f2f2f2"/>
  <circle id="Ellipse_550" data-name="Ellipse 550" cx="7.253" cy="7.253" r="7.253" transform="translate(580.456 568.923)" fill="#3f3d56"/>
  <rect id="Rectangle_1866" data-name="Rectangle 1866" width="78.063" height="17.81" transform="translate(310.529 282.014)" fill="#3f3d56"/>
  <rect id="Rectangle_1867" data-name="Rectangle 1867" width="78.063" height="17.81" transform="translate(774.529 523.014)" fill="#fff"/>
  <circle id="Ellipse_551" data-name="Ellipse 551" cx="54" cy="54" r="54" transform="translate(296 237.014)" fill="#70b94b" opacity="0.3"/>
  <circle id="Ellipse_552" data-name="Ellipse 552" cx="36" cy="36" r="36" transform="translate(314 255.014)" fill="#70b94b" opacity="0.3"/>
  <circle id="Ellipse_553" data-name="Ellipse 553" cx="25" cy="25" r="25" transform="translate(325 266.014)" fill="#70b94b"/>
  <circle id="Ellipse_554" data-name="Ellipse 554" cx="54" cy="54" r="54" transform="translate(750.375 103.185)" fill="#70b94b" opacity="0.3"/>
  <circle id="Ellipse_555" data-name="Ellipse 555" cx="36" cy="36" r="36" transform="translate(768.375 121.185)" fill="#70b94b" opacity="0.3"/>
  <circle id="Ellipse_556" data-name="Ellipse 556" cx="25" cy="25" r="25" transform="translate(779.375 132.185)" fill="#70b94b"/>
  <circle id="Ellipse_557" data-name="Ellipse 557" cx="54" cy="54" r="54" transform="translate(760 478.014)" fill="#70b94b" opacity="0.3"/>
  <circle id="Ellipse_558" data-name="Ellipse 558" cx="36" cy="36" r="36" transform="translate(778 496.014)" fill="#70b94b" opacity="0.3"/>
  <circle id="Ellipse_559" data-name="Ellipse 559" cx="25" cy="25" r="25" transform="translate(789 507.014)" fill="#70b94b"/>
  <rect id="Rectangle_1868" data-name="Rectangle 1868" width="22.242" height="28.597" transform="translate(112.148 110.223) rotate(-177.779)" fill="#70b94b"/>
  <path id="Path_2158" data-name="Path 2158" d="M241.915,314.679s30.779-14.706,30.287-2.005-31.025,21.056-31.025,21.056Z" transform="translate(-50.625 -133.815)" fill="#ffb9b9"/>
  <path id="Path_2159" data-name="Path 2159" d="M225.028,422.139s14.521,35.542,19.887,61.189,13.536,60.942,3.026,85.974-40.392,98.6-40.7,106.537,2.559,16-3.791,15.752-40.907-11.126-42.31-15.95,11.79-17.032,11.79-17.032l32.577-102.082-33.99-66.506L147,589.236l-4.8,123.828s-23.567-7.274-26.988-1.047c0,0-10.559-14.719-11.9-21.131S108.3,562.3,108.3,562.3,86.666,423.133,104.129,423.81,189.992,382.622,225.028,422.139Z" transform="translate(-50.625 -133.815)" fill="#2f2e41"/>
  <path id="Path_2160" data-name="Path 2160" d="M203.7,685.241s16.109,35.6,17.635,37.252,12.023,17.956,4.085,17.648-26.68-8.984-40.476-22.239-31.984-36.219-30.335-37.745,12.947-5.858,12.947-5.858Z" transform="translate(-50.625 -133.815)" fill="#2f2e41"/>
  <path id="Path_2161" data-name="Path 2161" d="M139.333,705s.972,15.937,3.9,22.41,2.559,16-5.378,15.691-28.453-4.283-28.453-4.283-1.218-9.587.431-11.113,8.676-18.743,5.686-23.628S139.333,705,139.333,705Z" transform="translate(-50.625 -133.815)" fill="#2f2e41"/>
  <path id="Path_2162" data-name="Path 2162" d="M127.589,187.821s-16.922,26.373-23.518,32.477,11.962,19.543,11.962,19.543l33.215,4.468s-.418-30.225,1.293-33.338S127.589,187.821,127.589,187.821Z" transform="translate(-50.625 -133.815)" fill="#ffb9b9"/>
  <path id="Path_2163" data-name="Path 2163" d="M156.46,222.329s-6.843,12.454-13.193,12.208-39.2-14.239-40.6-19.064-10.88,34.557-10.88,34.557L172.16,391.471l19.6-13.549-9.5-83.045-7.8-44.821Z" transform="translate(-50.625 -133.815)" fill="#70b94b"/>
  <path id="Path_2164" data-name="Path 2164" d="M99.7,348.913c3.206,6.707,5.208,13.7,4.931,20.86-.012.318-.025.635-.053.952-.761,14.693-6.173,31.686-8.115,44.044-1.409,8.865-1.008,15.336,4.18,16.856,12.577,3.668-1.834,6.289,46.826,22.485s57.152,2.216,57.275-.959-6.891-27.3-5.242-28.822,23.074,19.974,29.548,17.045.739-19.051.739-19.051-14.583-33.954-14.275-41.892-22.089-45.375-22.089-45.375l-15.234-99.167s-5.858-12.947-13.734-14.842-14.411,2.621-14.411,2.621l13.18,29.13,13.906,51.417-2.326,18.989s-16.17-34.016-26.79-47.147-33.264-44.218-33.264-44.218-5.286-17.837-1.3-23.168c3.991-5.346-16.647-6.147-25.446,15.771-4.664,11.616-12.236,28.939-16.979,45.068C66.8,283.8,64.808,297.158,69,304.794,75.4,316.457,91.5,331.789,99.7,348.913Z" transform="translate(-50.625 -133.815)" fill="#575a89"/>
  <path id="Path_2165" data-name="Path 2165" d="M69,304.794c6.4,11.664,22.5,27,30.708,44.119,2.144-7.723,4.759-15.715,4.759-15.715s10.031-53.669-19.64-67.539a19.858,19.858,0,0,0-13.791,3.853C66.8,283.8,64.808,297.159,69,304.794Z" transform="translate(-50.625 -133.815)" opacity="0.1"/>
  <path id="Path_2166" data-name="Path 2166" d="M186.782,301.411l25.154,7.335,34.926,1.354,3.593,30.348-57.4,4.134S178.721,304.279,186.782,301.411Z" transform="translate(-50.625 -133.815)" fill="#575a89"/>
  <path id="Path_2167" data-name="Path 2167" d="M145.764,403.451s33.652,5.583,25.971,15.71-37.492-.52-37.492-.52Z" transform="translate(-50.625 -133.815)" fill="#ffb9b9"/>
  <path id="Path_2168" data-name="Path 2168" d="M104.581,370.725c-.761,14.693-6.173,31.686-8.115,44.044,10.72,10.146,20.914,19.1,24.756,19.244,7.938.308,20.7-.787,25.4.985s7.458-28.329,7.458-28.329-2.806-9.648-15.321-14.9C130.312,388.21,114.119,378.567,104.581,370.725Z" transform="translate(-50.625 -133.815)" opacity="0.1"/>
  <path id="Path_2169" data-name="Path 2169" d="M85.192,256.134s-26.865-4.222-25.414,40.353-2.832,73.027,7.973,81.4,45.9,46.3,53.84,46.606,20.7-.787,25.4.985,7.458-28.329,7.458-28.329-2.806-9.649-15.322-14.9-42-23.888-41.756-30.238,7.458-28.329,7.458-28.329S114.863,270,85.192,256.134Z" transform="translate(-50.625 -133.815)" fill="#575a89"/>
  <circle id="Ellipse_560" data-name="Ellipse 560" cx="34.952" cy="34.952" r="34.952" transform="translate(65.702 23.152)" fill="#ffb9b9"/>
  <path id="Path_2170" data-name="Path 2170" d="M174.814,141.823a6.749,6.749,0,0,0,2.939,1.475,2.1,2.1,0,0,0,2.43-1.683c.8,1.658,1.7,3.426,3.335,4.277s4.157.137,4.393-1.689a7.706,7.706,0,0,0,1.774,3.744c1.013.966,2.85,1.21,3.734.125-.715,3.907-.274,7.926-.5,11.892s-1.282,8.17-4.278,10.778c-4.37,3.8-10.941,2.865-16.689,2.144a5.066,5.066,0,0,0-2.615.143c-2.152.917-2.055,3.913-2.084,6.252a17.373,17.373,0,0,1-15.212,16.5,8.709,8.709,0,0,1-6.472-1.58c-1.632-1.383-2.466-3.638-4.336-4.677-3.042-1.69-6.732.775-8.956,3.452s-4.416,5.969-7.862,6.459c-4.557.648-8.028-4-9.73-8.272a48.223,48.223,0,0,1,.958-37.47C125.158,132.949,157.661,129.669,174.814,141.823Z" transform="translate(-50.625 -133.815)" fill="#2f2e41"/>
  <path id="Path_2171" data-name="Path 2171" d="M1013.85,697.584c12.31,20.992,37.136,29.3,37.136,29.3s4.869-25.724-7.441-46.717-37.136-29.3-37.136-29.3S1001.54,676.592,1013.85,697.584Z" transform="translate(-50.625 -133.815)" fill="#f2f2f2"/>
  <path id="Path_2172" data-name="Path 2172" d="M1021.53,690.258c21.288,11.791,30.207,36.406,30.207,36.406s-25.6,5.5-46.885-6.292-30.207-36.406-30.207-36.406S1000.24,678.467,1021.53,690.258Z" transform="translate(-50.625 -133.815)" fill="#70b94b"/>
</svg>
